<?xml version="1.0" encoding="UTF-8"?>
<svg width="700pt" height="700pt" version="1.1" viewBox="0 0 700 700" xmlns="http://www.w3.org/2000/svg" xmlns:xlink="http://www.w3.org/1999/xlink">
 <defs>
  <symbol id="u" overflow="visible">
   <path d="m1.8281-0.10938c-0.09375 0.054688-0.19531 0.089844-0.29688 0.10938-0.09375 0.019531-0.19922 0.03125-0.3125 0.03125-0.33594 0-0.60156-0.085938-0.79688-0.26562-0.1875-0.1875-0.28125-0.44141-0.28125-0.76562 0-0.3125 0.09375-0.5625 0.28125-0.75 0.19531-0.1875 0.46094-0.28125 0.79688-0.28125 0.11328 0 0.21875 0.015625 0.3125 0.046875 0.10156 0.023437 0.20312 0.058594 0.29688 0.10938v0.40625c-0.09375-0.0625-0.1875-0.10938-0.28125-0.14062s-0.19531-0.046875-0.29688-0.046875c-0.17969 0-0.32031 0.0625-0.42188 0.1875-0.10547 0.11719-0.15625 0.27344-0.15625 0.46875 0 0.21094 0.050781 0.375 0.15625 0.5 0.10156 0.11719 0.24219 0.17188 0.42188 0.17188 0.10156 0 0.20312-0.015625 0.29688-0.046875s0.1875-0.078125 0.28125-0.14062z"/>
  </symbol>
  <symbol id="d" overflow="visible">
   <path d="m1.3438-1.0938c-0.042969-0.019531-0.085938-0.03125-0.125-0.03125-0.042969-0.007812-0.085938-0.015625-0.125-0.015625-0.125 0-0.22656 0.042969-0.29688 0.125-0.0625 0.074219-0.09375 0.18359-0.09375 0.32812v0.6875h-0.46875v-1.5h0.46875v0.25c0.0625-0.09375 0.12891-0.16016 0.20312-0.20312 0.082031-0.050781 0.17969-0.078125 0.29688-0.078125h0.046875c0.019531 0 0.050781 0.007812 0.09375 0.015625z"/>
  </symbol>
  <symbol id="a" overflow="visible">
   <path d="m1.7188-0.75v0.14062h-1.1094c0.007813 0.10547 0.046875 0.1875 0.10938 0.25 0.070312 0.054687 0.17188 0.078125 0.29688 0.078125 0.10156 0 0.20703-0.015625 0.3125-0.046875 0.10156-0.03125 0.21094-0.070313 0.32812-0.125v0.35938c-0.11719 0.042969-0.23047 0.074219-0.34375 0.09375-0.11719 0.019531-0.23047 0.03125-0.34375 0.03125-0.27344 0-0.48047-0.066406-0.625-0.20312-0.14844-0.13281-0.21875-0.32812-0.21875-0.57812 0-0.23828 0.070312-0.42578 0.21875-0.5625 0.14453-0.14453 0.34766-0.21875 0.60938-0.21875 0.22656 0 0.41016 0.074219 0.54688 0.21875 0.14453 0.13672 0.21875 0.32422 0.21875 0.5625zm-0.48438-0.15625c0-0.09375-0.027344-0.16406-0.078125-0.21875-0.054688-0.0625-0.125-0.09375-0.21875-0.09375-0.085938 0-0.15625 0.027344-0.21875 0.078125-0.0625 0.054687-0.10156 0.13281-0.10938 0.23438z"/>
  </symbol>
  <symbol id="c" overflow="visible">
   <path d="m0.90625-0.67188c-0.10547 0-0.18359 0.015625-0.23438 0.046875-0.054687 0.03125-0.078125 0.085938-0.078125 0.15625 0 0.0625 0.019531 0.10938 0.0625 0.14062 0.039062 0.03125 0.097656 0.046875 0.17188 0.046875 0.09375 0 0.16406-0.03125 0.21875-0.09375 0.0625-0.0625 0.09375-0.14453 0.09375-0.25v-0.046875zm0.71875-0.1875v0.85938h-0.48438v-0.21875c-0.0625 0.09375-0.13672 0.16406-0.21875 0.20312-0.074219 0.03125-0.16797 0.046875-0.28125 0.046875-0.15625 0-0.28125-0.039062-0.375-0.125-0.09375-0.09375-0.14062-0.21094-0.14062-0.35938 0-0.17578 0.054688-0.30078 0.17188-0.375 0.125-0.082031 0.3125-0.125 0.5625-0.125h0.28125v-0.046875c0-0.070312-0.03125-0.125-0.09375-0.15625-0.054687-0.039062-0.14062-0.0625-0.26562-0.0625-0.10547 0-0.20312 0.011719-0.29688 0.03125-0.085937 0.023438-0.16406 0.054688-0.23438 0.09375v-0.35938c0.10156-0.03125 0.20703-0.050781 0.3125-0.0625 0.10156-0.007813 0.20312-0.015625 0.29688-0.015625 0.26953 0 0.46094 0.054688 0.57812 0.15625 0.125 0.10547 0.1875 0.27734 0.1875 0.51562z"/>
  </symbol>
  <symbol id="b" overflow="visible">
   <path d="m0.75-1.9219v0.42188h0.5v0.34375h-0.5v0.64062c0 0.0625 0.007812 0.10938 0.03125 0.14062 0.03125 0.023438 0.085938 0.03125 0.17188 0.03125h0.25v0.34375h-0.40625c-0.1875 0-0.32422-0.035156-0.40625-0.10938-0.074219-0.082031-0.10938-0.21875-0.10938-0.40625v-0.64062h-0.25v-0.34375h0.25v-0.42188z"/>
  </symbol>
  <symbol id="j" overflow="visible">
   <path d="m1.25-1.2812v-0.79688h0.48438v2.0781h-0.48438v-0.21875c-0.074219 0.09375-0.15234 0.16406-0.23438 0.20312-0.074219 0.03125-0.16406 0.046875-0.26562 0.046875-0.17969 0-0.32812-0.070312-0.45312-0.21875-0.11719-0.14453-0.17188-0.33203-0.17188-0.5625 0-0.22656 0.054688-0.41406 0.17188-0.5625 0.125-0.14453 0.27344-0.21875 0.45312-0.21875 0.10156 0 0.19141 0.023438 0.26562 0.0625 0.082031 0.042969 0.16016 0.10547 0.23438 0.1875zm-0.3125 0.96875c0.09375 0 0.16406-0.035156 0.21875-0.10938 0.0625-0.070313 0.09375-0.17969 0.09375-0.32812 0-0.13281-0.03125-0.23828-0.09375-0.3125-0.054688-0.082031-0.125-0.125-0.21875-0.125-0.10547 0-0.18359 0.042969-0.23438 0.125-0.054687 0.074219-0.078125 0.17969-0.078125 0.3125 0 0.14844 0.023438 0.25781 0.078125 0.32812 0.050781 0.074219 0.12891 0.10938 0.23438 0.10938z"/>
  </symbol>
  <symbol id="i" overflow="visible">
   <path d="m1.0312-0.3125c0.09375 0 0.16406-0.035156 0.21875-0.10938 0.0625-0.070313 0.09375-0.17969 0.09375-0.32812 0-0.13281-0.03125-0.23828-0.09375-0.3125-0.054688-0.082031-0.125-0.125-0.21875-0.125-0.10547 0-0.1875 0.042969-0.25 0.125-0.054688 0.074219-0.078125 0.17969-0.078125 0.3125 0 0.14844 0.023437 0.25781 0.078125 0.32812 0.0625 0.074219 0.14453 0.10938 0.25 0.10938zm-0.32812-0.96875c0.070313-0.082031 0.14453-0.14453 0.21875-0.1875 0.082031-0.039062 0.17578-0.0625 0.28125-0.0625 0.1875 0 0.33594 0.074219 0.45312 0.21875 0.11328 0.14844 0.17188 0.33594 0.17188 0.5625 0 0.23047-0.058594 0.41797-0.17188 0.5625-0.11719 0.14844-0.26562 0.21875-0.45312 0.21875-0.10547 0-0.19922-0.015625-0.28125-0.046875-0.074219-0.039062-0.14844-0.10938-0.21875-0.20312v0.21875h-0.46875v-2.0781h0.46875z"/>
  </symbol>
  <symbol id="g" overflow="visible">
   <path d="m0.03125-1.5h0.48438l0.39062 1.0156 0.34375-1.0156h0.48438l-0.625 1.6406c-0.0625 0.16406-0.14062 0.28125-0.23438 0.34375-0.085938 0.070313-0.19531 0.10938-0.32812 0.10938h-0.26562v-0.3125h0.14062c0.082031 0 0.14062-0.015625 0.17188-0.046875 0.039062-0.023437 0.070312-0.070313 0.09375-0.14062l0.015625-0.03125z"/>
  </symbol>
  <symbol id="f" overflow="visible">
   <path d="m0.25-2h0.57812l0.71875 1.375v-1.375h0.48438v2h-0.5625l-0.73438-1.375v1.375h-0.48438z"/>
  </symbol>
  <symbol id="h" overflow="visible">
   <path d="m1.7344-0.90625v0.90625h-0.48438v-0.6875c0-0.13281-0.007812-0.22266-0.015625-0.26562 0-0.050781-0.007813-0.09375-0.015625-0.125-0.023438-0.03125-0.046875-0.050781-0.078125-0.0625-0.03125-0.019531-0.070313-0.03125-0.10938-0.03125-0.10547 0-0.1875 0.042969-0.25 0.125-0.054688 0.074219-0.078125 0.17969-0.078125 0.3125v0.73438h-0.46875v-2.0781h0.46875v0.79688c0.070313-0.082031 0.14844-0.14453 0.23438-0.1875 0.082031-0.039062 0.17188-0.0625 0.26562-0.0625 0.17578 0 0.30469 0.054688 0.39062 0.15625 0.09375 0.10547 0.14062 0.26172 0.14062 0.46875z"/>
  </symbol>
  <symbol id="t" overflow="visible">
   <path d="m0.015625-2h1.8281v0.39062h-0.65625v1.6094h-0.51562v-1.6094h-0.65625z"/>
  </symbol>
  <symbol id="s" overflow="visible">
   <path d="m1.25-0.25c-0.074219 0.085938-0.15234 0.14844-0.23438 0.1875-0.074219 0.042969-0.16406 0.0625-0.26562 0.0625-0.17969 0-0.32812-0.070312-0.45312-0.21875-0.11719-0.14453-0.17188-0.32812-0.17188-0.54688s0.054688-0.39844 0.17188-0.54688c0.125-0.14453 0.27344-0.21875 0.45312-0.21875 0.10156 0 0.19141 0.023438 0.26562 0.0625 0.082031 0.042969 0.16016 0.10547 0.23438 0.1875v-0.21875h0.48438v1.3438c0 0.23828-0.078125 0.42188-0.23438 0.54688-0.15625 0.13281-0.375 0.20312-0.65625 0.20312-0.09375 0-0.1875-0.011719-0.28125-0.03125-0.085938-0.011719-0.16797-0.03125-0.25-0.0625v-0.375c0.082031 0.050781 0.16016 0.085938 0.23438 0.10938 0.082031 0.03125 0.16406 0.046875 0.25 0.046875 0.15625 0 0.26953-0.039062 0.34375-0.10938 0.070313-0.074219 0.10938-0.17969 0.10938-0.32812zm-0.3125-0.9375c-0.10547 0-0.18359 0.039062-0.23438 0.10938-0.054687 0.074219-0.078125 0.17969-0.078125 0.3125 0 0.13672 0.023438 0.24219 0.078125 0.3125 0.050781 0.074219 0.12891 0.10938 0.23438 0.10938 0.09375 0 0.16406-0.035156 0.21875-0.10938 0.0625-0.070313 0.09375-0.17578 0.09375-0.3125 0-0.13281-0.03125-0.23828-0.09375-0.3125-0.054688-0.070313-0.125-0.10938-0.21875-0.10938z"/>
  </symbol>
  <symbol id="r" overflow="visible">
   <path d="m0.23438-1.5h0.46875v1.5h-0.46875zm0-0.57812h0.46875v0.39062h-0.46875z"/>
  </symbol>
  <symbol id="q" overflow="visible">
   <path d="m1.2188-2.0781v0.3125h-0.26562c-0.074219 0-0.125 0.015625-0.15625 0.046875-0.023437 0.023438-0.03125 0.0625-0.03125 0.125v0.09375h0.40625v0.34375h-0.40625v1.1562h-0.46875v-1.1562h-0.25v-0.34375h0.25v-0.09375c0-0.16406 0.039063-0.28516 0.125-0.35938 0.09375-0.082031 0.23438-0.125 0.42188-0.125z"/>
  </symbol>
  <symbol id="e" overflow="visible">
   <path d="m0.9375-1.1875c-0.10547 0-0.1875 0.039062-0.25 0.10938-0.054688 0.074219-0.078125 0.18359-0.078125 0.32812 0 0.14844 0.023437 0.26172 0.078125 0.34375 0.0625 0.074219 0.14453 0.10938 0.25 0.10938 0.10156 0 0.17969-0.035156 0.23438-0.10938 0.0625-0.082031 0.09375-0.19531 0.09375-0.34375 0-0.14453-0.03125-0.25391-0.09375-0.32812-0.054687-0.070313-0.13281-0.10938-0.23438-0.10938zm0-0.34375c0.25781 0 0.46094 0.074219 0.60938 0.21875 0.14453 0.13672 0.21875 0.32422 0.21875 0.5625 0 0.25-0.074219 0.44531-0.21875 0.57812-0.14844 0.13672-0.35156 0.20312-0.60938 0.20312-0.26172 0-0.46484-0.066406-0.60938-0.20312-0.13672-0.13281-0.20312-0.32812-0.20312-0.57812 0-0.23828 0.066406-0.42578 0.20312-0.5625 0.14453-0.14453 0.34766-0.21875 0.60938-0.21875z"/>
  </symbol>
  <symbol id="p" overflow="visible">
   <path d="m1.6094-1.25c0.0625-0.09375 0.13281-0.16016 0.21875-0.20312 0.082031-0.050781 0.17578-0.078125 0.28125-0.078125 0.16406 0 0.29688 0.054688 0.39062 0.15625 0.09375 0.10547 0.14062 0.26172 0.14062 0.46875v0.90625h-0.48438v-0.78125-0.03125-0.0625c0-0.10156-0.015625-0.17578-0.046875-0.21875-0.03125-0.050781-0.085937-0.078125-0.15625-0.078125-0.085937 0-0.15234 0.039063-0.20312 0.10938-0.054688 0.074219-0.078125 0.18359-0.078125 0.32812v0.73438h-0.48438v-0.78125c0-0.16406-0.015625-0.26953-0.046875-0.3125-0.023437-0.050781-0.070313-0.078125-0.14062-0.078125-0.09375 0-0.16797 0.042969-0.21875 0.125-0.054688 0.074219-0.078125 0.17969-0.078125 0.3125v0.73438h-0.46875v-1.5h0.46875v0.21875c0.0625-0.082031 0.12891-0.14453 0.20312-0.1875 0.082031-0.039062 0.16406-0.0625 0.25-0.0625 0.10156 0 0.19141 0.027344 0.26562 0.078125 0.082031 0.054687 0.14453 0.12109 0.1875 0.20312z"/>
  </symbol>
  <symbol id="o" overflow="visible">
   <path d="m0.21875-0.57812v-0.92188h0.46875v0.15625 0.3125 0.23438 0.26562c0.007812 0.054688 0.023438 0.089844 0.046875 0.10938 0.019531 0.03125 0.046875 0.058594 0.078125 0.078125 0.03125 0.011719 0.066406 0.015625 0.10938 0.015625 0.09375 0 0.16406-0.035156 0.21875-0.10938 0.0625-0.070312 0.09375-0.17578 0.09375-0.3125v-0.75h0.48438v1.5h-0.48438v-0.21875c-0.074219 0.09375-0.15234 0.16406-0.23438 0.20312-0.074219 0.03125-0.15625 0.046875-0.25 0.046875-0.17969 0-0.3125-0.050781-0.40625-0.15625-0.085938-0.10156-0.125-0.25391-0.125-0.45312z"/>
  </symbol>
  <symbol id="n" overflow="visible">
   <path d="m1.7344-0.90625v0.90625h-0.48438v-0.70312c0-0.125-0.007812-0.20703-0.015625-0.25 0-0.050781-0.007813-0.09375-0.015625-0.125-0.023438-0.03125-0.046875-0.050781-0.078125-0.0625-0.03125-0.019531-0.070313-0.03125-0.10938-0.03125-0.10547 0-0.1875 0.042969-0.25 0.125-0.054688 0.074219-0.078125 0.17969-0.078125 0.3125v0.73438h-0.46875v-1.5h0.46875v0.21875c0.070313-0.082031 0.14844-0.14453 0.23438-0.1875 0.082031-0.039062 0.17188-0.0625 0.26562-0.0625 0.17578 0 0.30469 0.054688 0.39062 0.15625 0.09375 0.10547 0.14062 0.26172 0.14062 0.46875z"/>
  </symbol>
  <symbol id="m" overflow="visible">
   <path d="m0.25-2h0.85938c0.25 0 0.44141 0.058594 0.57812 0.17188 0.13281 0.11719 0.20312 0.27734 0.20312 0.48438 0 0.21094-0.070313 0.37109-0.20312 0.48438-0.13672 0.11719-0.32812 0.17188-0.57812 0.17188h-0.34375v0.6875h-0.51562zm0.51562 0.375v0.5625h0.28125c0.10156 0 0.17969-0.019531 0.23438-0.0625 0.050781-0.050781 0.078125-0.125 0.078125-0.21875s-0.027344-0.16016-0.078125-0.20312c-0.054688-0.050781-0.13281-0.078125-0.23438-0.078125z"/>
  </symbol>
  <symbol id="l" overflow="visible">
   <path d="m0.23438-1.5h0.46875v1.4688c0 0.20703-0.046875 0.36328-0.14062 0.46875-0.09375 0.10156-0.23438 0.15625-0.42188 0.15625h-0.23438v-0.3125h0.078125c0.09375 0 0.15625-0.023438 0.1875-0.0625 0.039063-0.042969 0.0625-0.125 0.0625-0.25zm0-0.57812h0.46875v0.39062h-0.46875z"/>
  </symbol>
  <symbol id="k" overflow="visible">
   <path d="m1.4375-1.4531v0.39062c-0.0625-0.039062-0.13281-0.070312-0.20312-0.09375-0.0625-0.019531-0.13281-0.03125-0.20312-0.03125-0.125 0-0.23047 0.042969-0.3125 0.125-0.074219 0.074219-0.10938 0.17969-0.10938 0.3125 0 0.14844 0.035156 0.26172 0.10938 0.34375 0.082031 0.074219 0.1875 0.10938 0.3125 0.10938 0.082031 0 0.15625-0.007813 0.21875-0.03125 0.070312-0.03125 0.13281-0.066406 0.1875-0.10938v0.39062c-0.074219 0.03125-0.15234 0.050781-0.23438 0.0625-0.074219 0.0078125-0.14844 0.015625-0.21875 0.015625-0.27344 0-0.48438-0.066406-0.64062-0.20312-0.14844-0.13281-0.21875-0.32812-0.21875-0.57812 0-0.23828 0.070312-0.42578 0.21875-0.5625 0.15625-0.14453 0.36719-0.21875 0.64062-0.21875 0.070313 0 0.14453 0.011719 0.21875 0.03125 0.082031 0.011719 0.16016 0.027344 0.23438 0.046875z"/>
  </symbol>
 </defs>
 <g>
  <path d="m415.79 182.77c0 36.336-29.453 65.789-65.789 65.789s-65.789-29.453-65.789-65.789 29.453-65.789 65.789-65.789 65.789 29.453 65.789 65.789"/>
  <path d="m407.09 182.77c0 1.6406-0.054688 3.3359-0.16406 4.9766-0.054688 0.76562-0.10938 1.5312-0.21875 2.2422-0.054688 0.38281-0.10938 0.76562-0.10938 1.1484 0.10938-0.82031 0.16406-1.0391 0-0.10937-0.60156 3.2812-1.3125 6.5078-2.3516 9.7344-0.4375 1.3672-0.98438 2.7344-1.4766 4.1016-0.4375 1.2031 0.60156-1.2578 0.054687-0.054687-0.16406 0.32812-0.27344 0.65625-0.4375 0.98437-0.32812 0.76563-0.71094 1.5312-1.0938 2.2969-1.4219 2.7891-3.0078 5.4688-4.8125 8.0391-0.49219 0.71094-0.98438 1.3672-1.4766 2.0234 0.92969-1.2031 0 0-0.4375 0.49219-1.0938 1.3125-2.1875 2.5156-3.3359 3.7188-0.98438 1.0391-2.0234 2.0234-3.0625 3.0078-0.60156 0.54687-1.2578 1.0938-1.9141 1.6406-0.4375 0.38281-2.0781 1.6406-0.76562 0.65625-2.5156 1.8594-5.0859 3.6094-7.8203 5.1406-1.3672 0.76562-2.7891 1.4766-4.2109 2.1328-0.32813 0.16406-2.1875 0.92969-1.2578 0.60156 1.0391-0.4375-0.38281 0.16406-0.65625 0.21875-0.4375 0.16406-0.92969 0.32813-1.3672 0.49219-3.0078 1.0938-6.0703 1.9688-9.2422 2.5703-0.71094 0.16406-1.4766 0.27344-2.1875 0.38281-0.27344 0.054687-1.8594 0.32812-0.71094 0.10938 1.0938-0.16406-0.16406 0-0.32812 0.054688-1.6406 0.16406-3.2812 0.32812-4.9219 0.38281-3.4453 0.16406-6.8906 0-10.336-0.38281-1.75-0.16406 1.0391 0.21875-0.65625-0.10938-0.71094-0.10937-1.4766-0.27344-2.1875-0.38281-1.6953-0.32812-3.3906-0.71094-5.0312-1.2031-1.5312-0.4375-3.0625-0.92969-4.5391-1.4766-0.71094-0.27344-1.3672-0.54687-2.0234-0.76562-0.92969-0.32813 0.32812 0.10937 0.38281 0.16406-0.4375-0.21875-0.875-0.38281-1.3125-0.60156-2.9531-1.3672-5.7969-2.9531-8.5312-4.7031-1.3125-0.875-2.5703-1.75-3.8281-2.6797 1.2031 0.92969 0 0-0.49219-0.4375-0.65625-0.54688-1.2578-1.0938-1.9141-1.6406-2.4062-2.1328-4.6484-4.4844-6.7266-6.9453-0.4375-0.49219-1.3125-1.6953-0.4375-0.49219-0.4375-0.54688-0.875-1.1484-1.2578-1.75-0.98438-1.3672-1.9141-2.7891-2.7344-4.2109-0.76562-1.2578-1.4219-2.5156-2.1328-3.7734-0.38281-0.76562-0.76562-1.5312-1.0938-2.2969-0.27344-0.54688-1.0391-2.5156-0.4375-0.92969-1.2031-3.1172-2.2422-6.1797-3.0078-9.4062-0.32813-1.4219-0.65625-2.8984-0.875-4.375-0.054688-0.38281-0.10938-0.76562-0.16406-1.0938 0.054687 0.32813 0.21875 1.8047 0 0.10938-0.10938-0.875-0.16406-1.75-0.27344-2.625-0.27344-3.3359-0.27344-6.6719 0-9.9531 0.054687-0.875 0.16406-1.75 0.27344-2.625 0.16406-1.75-0.21875 1.0391 0.10938-0.65625 0.32812-1.6953 0.60156-3.3906 1.0391-5.0859 0.76563-3.1172 1.8047-6.0703 2.9531-9.0781-0.54688 1.4219 0 0 0.27344-0.60156 0.32812-0.76563 0.71094-1.5312 1.0938-2.2969 0.71094-1.4219 1.4766-2.7891 2.2969-4.1016s1.6406-2.625 2.5703-3.9375c0.4375-0.60156 0.875-1.1484 1.2578-1.75 0.54688-0.82031-0.21875 0.27344-0.27344 0.32812 0.38281-0.4375 0.76562-0.92969 1.1484-1.3672 2.0234-2.3516 4.1562-4.5938 6.4531-6.6719 0.54688-0.49219 1.0938-0.92969 1.6406-1.4219 0.32812-0.27344 2.2969-1.8047 0.76562-0.65625 1.2578-0.92969 2.5156-1.8594 3.8281-2.6797 2.7344-1.8047 5.5781-3.3359 8.5312-4.7031 0.60156-0.27344 2.0234-0.82031 0.60156-0.27344 0.65625-0.27344 1.3672-0.54688 2.0234-0.76563 1.5859-0.60156 3.2266-1.0938 4.8672-1.5859 1.5312-0.4375 3.1172-0.82031 4.7031-1.1484 0.71094-0.16406 1.4766-0.27344 2.1875-0.38281 0.38281-0.054687 0.76562-0.10938 1.0938-0.16406-0.76563 0.16406-1.0391 0.10938-0.10938 0 3.4453-0.38281 6.8906-0.54687 10.336-0.38281 1.5312 0.054688 3.0625 0.16406 4.5391 0.32812 0.38281 0.054687 0.76563 0.10938 1.1484 0.10938-1.8047-0.21875-0.4375-0.054688-0.10938 0 0.875 0.16406 1.6953 0.27344 2.5703 0.49219 3.1172 0.65625 6.2344 1.4766 9.2422 2.5703 0.82031 0.27344 1.5859 0.60156 2.4062 0.92969-1.4219-0.54688 0 0 0.60156 0.27344 1.5312 0.71094 3.0625 1.4766 4.5391 2.2969 2.7344 1.5312 5.3594 3.2266 7.8203 5.1406-1.2031-0.92969 0 0 0.49219 0.4375 0.65625 0.54688 1.2578 1.0938 1.9141 1.6406 1.1484 1.0391 2.2969 2.1328 3.3359 3.2266 1.0938 1.0938 2.1328 2.2969 3.1172 3.4453 0.21875 0.27344 1.4766 1.8047 0.875 1.0938-0.65625-0.82031 0.10937 0.10938 0.16406 0.27344 0.32812 0.49219 0.71094 0.98438 1.0391 1.4766 1.8047 2.5703 3.3906 5.25 4.8125 8.0391 0.32813 0.65625 0.65625 1.3125 0.92969 1.9688 0.27344 0.54687 1.0938 2.5156 0.4375 0.92969 0.60156 1.4766 1.1484 2.9531 1.6406 4.4844 1.0391 3.1719 1.75 6.3984 2.3516 9.7344 0.32812 1.6953-0.10938-1.0938 0.10937 0.65625 0.054688 0.76562 0.16406 1.5312 0.21875 2.2422-0.054687 1.6406 0 3.3906 0.054688 5.1953 0 4.5938 3.9922 8.9688 8.75 8.75 4.7031-0.21875 8.75-3.8281 8.75-8.75-0.16406-31.391-20.07-59.391-49.492-70.219-28.656-10.555-62.727-1.3125-82.086 22.258-10.062 12.195-16.023 26.797-17.281 42.602-1.2031 15.094 2.5703 30.68 10.336 43.586 16.297 27.125 48.234 40.852 79.133 34.727 29.531-5.8516 53.867-31.008 58.352-60.812 0.60156-4.0469 1.0391-8.0938 1.0391-12.195 0-4.5938-4.0469-8.9688-8.75-8.75-4.8125 0.27344-8.75 3.9375-8.75 8.8047z"/>
  <path d="m470.59 409.23h-241.45c-9.8984 0-17.883-7.9844-17.883-17.883v-11.977c0-60.32 48.891-109.27 109.27-109.27h58.68c60.32 0 109.27 48.891 109.27 109.27v11.977c0 9.8984-8.0391 17.883-17.883 17.883z"/>
  <path d="m470.59 400.53h-27.016-63.656-74.156-58.516-15.258-2.6797-0.82031c-1.6406 0-0.27344 0 0.10938 0.054688-0.49219-0.10938-0.98438-0.16406-1.4219-0.27344-0.49219-0.10938-0.92969-0.27344-1.3672-0.4375-2.0234-0.60156 1.2578 0.82031-0.54688-0.27344-0.49219-0.27344-2.5703-1.8047-1.1484-0.60156-0.71094-0.60156-1.3672-1.2578-2.0234-1.9688-1.4219-1.4219 0.27344 0.875-0.16406-0.16406-0.16406-0.4375-0.49219-0.82031-0.76562-1.2031-0.16406-0.21875-0.82031-1.5859-0.32812-0.54687 0.54688 1.0938-0.21875-0.71094-0.32812-0.98438-0.16406-0.60156-0.27344-1.2031-0.4375-1.75-0.32812-1.2031-0.054688 1.4219 0.054688 0.10938 0.054687-0.4375-0.054688-0.875-0.054688-1.3125v-3.1719-8.1484c0-3.4453 0.10938-6.9453 0.4375-10.391 0.10938-0.98438 0.21875-2.0234 0.32812-3.0078 0.16406-1.6953 0-0.21875 0 0.10937 0.054687-0.49219 0.16406-0.98437 0.21875-1.4766 0.32812-2.1875 0.76562-4.375 1.2031-6.5625 0.92969-4.2109 2.0781-8.3125 3.4453-12.359 0.65625-1.9688 1.4219-3.8828 2.1875-5.7969 0.16406-0.32812 0.71094-1.5312-0.054687 0.10938 0.21875-0.4375 0.38281-0.875 0.60156-1.3125 0.49219-1.0938 0.98437-2.1875 1.5312-3.2812 1.8047-3.6641 3.7734-7.2188 5.9609-10.664 1.0391-1.5859 2.0781-3.1719 3.2266-4.7578 0.60156-0.875 1.2578-1.6953 1.9141-2.5703 0.76562-1.0391-0.875 1.0391-0.054688 0.054687 0.38281-0.4375 0.76563-0.92969 1.0938-1.3672 2.625-3.2266 5.4688-6.2891 8.4219-9.1875 1.4219-1.4219 2.9531-2.7891 4.4844-4.1016 0.71094-0.60156 1.4219-1.2578 2.1875-1.8594 0.38281-0.32812 0.71094-0.60156 1.0938-0.92969 0.21875-0.16406 2.0781-1.6406 0.49219-0.38281 6.5078-4.9219 13.453-9.1328 20.891-12.523 0.54688-0.27344 1.0938-0.49219 1.6406-0.71094 1.1484-0.60156-1.3125 0.49219-0.10938 0.054687 0.875-0.32812 1.8047-0.71094 2.6797-1.0938 2.0234-0.76562 4.1016-1.4766 6.1797-2.1328 4.1016-1.3125 8.2578-2.3516 12.523-3.1172 0.98437-0.16406 1.9688-0.32812 2.9531-0.49219 0.65625-0.10938 3.2812-0.4375 1.3672-0.21875 2.2422-0.27344 4.4844-0.49219 6.7812-0.65625 2.4062-0.16406 4.8672-0.21875 7.2734-0.21875h56.82 3.3359c2.1328 0.054687 4.3203 0.16406 6.4531 0.27344 0.98438 0.054688 2.0234 0.16406 3.0078 0.27344 0.49219 0.054688 0.98438 0.10938 1.4766 0.16406 2.5156 0.27344-1.8047-0.27344 0.65625 0.054688 8.3672 1.2578 16.57 3.3906 24.445 6.5625 0.4375 0.16406 0.875 0.38281 1.3672 0.54688 1.2031 0.49219-1.2578-0.60156-0.10938-0.054687 0.875 0.4375 1.75 0.76562 2.625 1.2031 1.9688 0.92969 3.8828 1.9141 5.7969 2.9531 3.6641 2.0234 7.2188 4.2109 10.664 6.6172 0.76562 0.54688 1.5312 1.0938 2.2969 1.6953 0.38281 0.27344 0.76562 0.54687 1.1484 0.875-1.3672-1.0391-0.38281-0.27344-0.054687-0.054688 1.6406 1.3672 3.3359 2.7344 4.9219 4.1562 3.1172 2.7891 6.0703 5.7422 8.8047 8.8594 1.2578 1.4219 2.4609 2.8984 3.6641 4.375 0.27344 0.38281 1.2578 1.6406 0.16406 0.21875 0.27344 0.38281 0.60156 0.76562 0.875 1.1484 0.65625 0.875 1.2578 1.75 1.8594 2.625 2.4062 3.4453 4.5938 7 6.5625 10.664 0.92969 1.6953 1.8047 3.3906 2.625 5.1406 0.4375 0.875 0.82031 1.75 1.2031 2.625 0.98438 2.1328-0.4375-1.0938 0.10938 0.21875 0.21875 0.54688 0.4375 1.0938 0.65625 1.6953 1.5859 3.9922 2.8984 8.0391 3.9922 12.141 1.0938 4.0469 1.8594 8.2031 2.5156 12.359 0.21875 1.4766-0.21875-2.1328 0 0.27344 0.054688 0.49219 0.10938 0.98438 0.16406 1.4766 0.10938 0.98438 0.21875 2.0234 0.27344 3.0078 0.16406 2.2969 0.27344 4.5938 0.32812 6.8359 0.054687 4.4844 0.10938 9.0234 0 13.508 0 0.16406-0.054687 0.875-0.054687 1.1484 0.10937 1.2578 0.38281-1.3125 0.054687-0.10937-0.27344 1.0391-0.49219 2.0781-0.875 3.1172 0.65625-1.75-0.49219 0.60156-0.71094 1.0938-0.16406 0.38281-0.98438 1.2578 0.10937-0.054687-0.32812 0.38281-0.60156 0.71094-0.92969 1.0391-0.49219 0.49219-2.4062 1.8594-0.92969 0.92969-0.82031 0.49219-1.6406 0.92969-2.4609 1.4219 1.3125-0.82031 0.65625-0.21875 0.10938-0.054687-0.60156 0.16406-1.1484 0.38281-1.75 0.49219-0.27344 0.054688-1.8047 0.27344-0.65625 0.16406 1.5312-0.27344-0.92969-0.10938-0.92969-0.10938-4.5938 0.10938-8.9688 3.9375-8.75 8.75 0.21875 4.6484 3.8281 8.8594 8.75 8.75 11.648-0.21875 21.602-7.4922 25.375-18.539 2.0234-5.8516 1.2578-12.742 1.2578-18.867 0-17.719-3.6641-34.891-10.992-50.969-14.875-32.594-45.5-57.312-80.391-65.242-11.539-2.625-23.133-3.0078-34.891-3.0078h-35.984c-10.445 0-20.727-0.16406-31.117 1.2578-17.555 2.4062-34.672 8.9141-49.273 18.977-30.68 21-50.039 55.289-51.844 92.422-0.27344 5.5781-0.16406 11.156-0.10937 16.734 0.054687 9.7891 5.0312 19.25 13.781 23.953 5.7969 3.1172 11.703 3.2812 17.938 3.2812h47.523 74.32 71.805 40.688 1.9688c4.5938 0 8.9688-4.0469 8.75-8.75-0.27344-4.7578-3.9375-8.75-8.8047-8.75z"/>
  <path d="m569.24 280c0 6.125-0.21875 12.25-0.71094 18.375-0.21875 3.0078-0.54688 6.0156-0.875 9.0234-0.054688 0.60156-0.16406 1.2578-0.21875 1.8594-0.10938 0.98438 0.27344 2.1875 0.054688-0.27344 0.10937 1.5859-0.54688 3.6094-0.76563 5.1953-1.8594 11.594-4.6484 23.023-8.2578 34.18-1.75 5.4688-3.7734 10.828-5.9062 16.133-0.32812 0.76562-0.71094 2.8438 0 0.054687-0.16406 0.65625-0.60156 1.3672-0.875 2.0234-0.60156 1.3125-1.2031 2.6797-1.8047 3.9922-1.2031 2.625-2.4609 5.25-3.7734 7.8203-5.1953 10.281-11.211 20.18-17.883 29.586-1.4219 2.0234-2.8438 4.7578-4.7031 6.3438 2.0234-1.75 0.49219-0.65625-0.054688 0.054688-0.4375 0.54687-0.875 1.1484-1.3125 1.6953-0.875 1.0938-1.8047 2.2422-2.7344 3.3359-3.6641 4.4297-7.4922 8.6953-11.484 12.797-3.9922 4.1016-8.1484 8.0938-12.414 11.922-1.9688 1.75-3.9375 3.4453-5.9609 5.1406-1.0938 0.92969-2.1875 1.8047-3.3359 2.7344-0.54687 0.4375-1.1484 0.875-1.6953 1.3125-0.38281 0.27344-0.76562 0.60156-1.1484 0.875 1.2578-0.98438 1.4219-1.0938 0.49219-0.38281-9.0234 6.7812-18.43 13.016-28.328 18.43-5.0859 2.7891-10.227 5.4141-15.531 7.8203-1.3125 0.60156-2.625 1.2031-3.9922 1.75-0.21875 0.10938-2.4062 1.0391-0.71094 0.32812 1.75-0.71094-0.49219 0.21875-0.71094 0.27344-2.8984 1.2031-5.8516 2.3516-8.8594 3.4453-10.883 3.9375-22.039 7.0547-33.359 9.2969-2.9531 0.60156-5.8516 1.0938-8.8047 1.5859-1.2578 0.21875-2.4609 0.38281-3.7188 0.54688-2.625 0.38281 2.5703-0.32813-0.054687 0-0.98438 0.10937-1.9688 0.27344-3.0078 0.38281-6.0703 0.71094-12.141 1.1484-18.211 1.3672-11.977 0.4375-24.008-0.054688-35.875-1.4766-0.76563-0.10938-1.4766-0.16406-2.2422-0.27344-2.625-0.32813 2.5703 0.38281-0.054688 0-1.4766-0.21875-2.9531-0.4375-4.4297-0.65625-2.9531-0.49219-5.9062-1.0391-8.8047-1.5859-5.7969-1.2031-11.594-2.5703-17.281-4.2109-5.6328-1.5859-11.211-3.4453-16.734-5.4688-2.5156-0.92969-4.9766-1.9141-7.4922-2.8984-0.76562-0.32812-2.8438-0.71094-0.054687 0-0.65625-0.16406-1.3672-0.60156-2.0234-0.875-1.3125-0.60156-2.6797-1.2031-3.9922-1.8047-10.5-4.8125-20.617-10.445-30.297-16.789-2.1875-1.4766-4.375-2.9531-6.5078-4.4844-1.1484-0.82031-2.3516-1.6953-3.5-2.5156-0.60156-0.4375-1.1484-0.875-1.75-1.3125-0.54688-0.4375-3.3359-2.1328-0.65625-0.49219-4.6484-2.8984-8.8594-7.1641-12.906-10.828-8.4219-7.6016-16.297-15.805-23.57-24.555-0.92969-1.0938-1.8047-2.2422-2.7344-3.3359-0.4375-0.54688-0.875-1.1484-1.3125-1.6953-0.54688-0.65625-1.2031-0.875 0.38281 0.49219-2.1875-1.8594-3.8828-5.1953-5.5234-7.5469-3.3359-4.7031-6.4531-9.5156-9.4062-14.492-2.8438-4.7578-5.5234-9.625-7.9844-14.547-1.3125-2.5703-2.5703-5.1953-3.7734-7.8203-0.49219-1.0938-0.98438-2.1875-1.4766-3.3359-0.27344-0.60156-0.71094-1.3125-0.875-2.0234 0.71094 3.0078 0 0-0.27344-0.76563-4.4297-10.883-8.0391-22.094-10.719-33.523-1.3125-5.5781-2.4062-11.156-3.3359-16.789-0.21875-1.3672-0.76562-3.1172-0.65625-4.4297-0.21875 2.7344 0.10938 0.875 0-0.054687-0.10937-0.76563-0.16406-1.4766-0.27344-2.2422-0.32812-3.0078-0.65625-6.0156-0.875-9.0781-0.92969-12.25-0.875-24.555 0.10938-36.75 0.21875-2.7891 0.49219-5.5234 0.82031-8.3125 0.10938-0.76562 0.16406-1.4766 0.27344-2.2422 0.32812-2.625-0.38281 2.5703 0-0.054688 0.21875-1.4766 0.4375-2.9531 0.65625-4.4297 0.92969-5.9062 2.1328-11.703 3.5547-17.5 2.7891-11.43 6.5078-22.586 10.938-33.469 0.98437-2.3516-0.98438 2.2969 0.054687-0.054687 0.21875-0.4375 0.38281-0.875 0.60156-1.3125 0.60156-1.3125 1.2031-2.6797 1.8047-3.9922 1.3125-2.8438 2.6797-5.6875 4.1016-8.4766 2.5156-4.9219 5.1953-9.7891 8.0938-14.492 3.0078-4.9219 6.125-9.7344 9.5156-14.438 0.82031-1.1484 1.6953-2.3516 2.5156-3.5 0.4375-0.60156 0.875-1.1484 1.3125-1.75 0.10937-0.16406 1.5312-2.0781 0.4375-0.60156-1.0391 1.4766 0.32812-0.4375 0.49219-0.60156 0.4375-0.54687 0.875-1.1484 1.3125-1.6953 1.0391-1.3125 2.1328-2.625 3.1719-3.8828 7.2188-8.5859 15.039-16.68 23.406-24.172 2.1328-1.9141 4.3203-3.7734 6.5078-5.6328 1.0391-0.82031 2.0234-1.6406 3.0625-2.5156 0.49219-0.38281 0.92969-0.76562 1.4219-1.0938 0.38281-0.27344 0.76562-0.60156 1.1484-0.875-1.2578 0.98438-1.4219 1.0938-0.49219 0.38281 4.5938-3.4453 9.2969-6.7812 14.109-9.8984 9.5156-6.1797 19.469-11.648 29.75-16.352 1.3125-0.60156 2.625-1.2031 3.9922-1.75 0.71094-0.32813 2.5156-1.5312 0.054688-0.054688 0.60156-0.38281 1.3672-0.54688 2.0234-0.82031 2.6797-1.0938 5.4141-2.1328 8.1484-3.1719 5.5234-2.0234 11.102-3.7734 16.789-5.3594 5.6875-1.5859 11.484-2.9531 17.281-4.1016 2.6797-0.54688 5.4141-0.98438 8.0938-1.4219 1.3672-0.21875 3.1172-0.76562 4.4297-0.65625-2.7344-0.21875-0.875 0.10938 0.054688 0l2.625-0.32812c12.031-1.3672 24.172-1.8047 36.312-1.2578 6.0703 0.27344 12.141 0.76563 18.156 1.4766 0.71094 0.10938 1.5312 0.10938 2.2422 0.27344-2.7344-0.65625-1.0938-0.16406-0.27344-0.054687 1.3672 0.21875 2.7344 0.38281 4.1016 0.60156 3.1719 0.49219 6.3984 1.0938 9.5703 1.75 11.32 2.3516 22.422 5.5234 33.25 9.5156 2.7344 1.0391 5.4688 2.0781 8.1484 3.1719 0.71094 0.27344 1.6406 0.27344-0.60156-0.27344 0.65625 0.16406 1.3672 0.60156 2.0234 0.875 1.5312 0.65625 3.1172 1.3672 4.6484 2.0781 5.25 2.4609 10.391 5.0859 15.477 7.875 4.8125 2.6797 9.5703 5.5781 14.164 8.5859 2.4062 1.5859 4.7578 3.2266 7.1094 4.8672 1.1484 0.82031 2.3516 1.6953 3.5 2.5156 0.38281 0.27344 0.76562 0.54688 1.1484 0.875 0.54688 0.4375 3.3359 2.1328 0.65625 0.49219 4.7031 2.9531 9.0781 7.3281 13.18 11.047 4.2656 3.8281 8.3672 7.8203 12.305 11.977 3.8828 4.0469 7.6016 8.2578 11.156 12.578 0.82031 1.0391 1.6406 2.0234 2.4609 3.0625 0.4375 0.54688 0.875 1.1484 1.3125 1.6953 1.5859 1.9688-1.4766-1.9688 0.054687 0.054687 1.75 2.2969 3.4453 4.5938 5.0859 6.9453 6.6172 9.4609 12.578 19.359 17.719 29.695 1.2031 2.3516 2.3516 4.7578 3.4453 7.2188 0.60156 1.3125 1.2031 2.625 1.75 3.9922 0.32813 0.71094 1.5312 2.5156 0.054688 0.054687 0.49219 0.76562 0.76562 1.8594 1.0938 2.6797 2.0781 5.1953 3.9922 10.5 5.6875 15.805 3.6094 11.32 6.3438 22.859 8.1484 34.617 0.10937 0.76562 0.21875 1.4766 0.32812 2.2422 0.10938 0.71094 0.76563 3.0078 0 0.054687 0.32813 1.2031 0.32813 2.5156 0.4375 3.7188 0.32813 3.0078 0.65625 6.0156 0.875 9.0781 0.54688 6.125 0.76563 12.031 0.76563 17.883 0 5.7422 5.0312 11.211 10.938 10.938s10.938-4.8125 10.938-10.938c-0.054688-49.438-15.367-98.656-44.133-138.96-28.547-40.086-68.523-70.711-114.79-87.664-47.086-17.281-99.969-18.977-148.2-5.25-46.484 13.234-88.812 40.797-119.55 78.148-31.828 38.719-50.969 86.133-54.797 136.12-3.7188 49.383 8.3125 99.805 33.961 142.19 24.938 41.125 62.289 74.812 106.15 94.664 46.648 21.109 98.875 27.016 149.08 16.844 47.578-9.625 91.875-34.398 125.4-69.453 33.633-35.219 56.492-80.609 63.82-128.84 1.9141-12.523 3.0078-25.102 3.0078-37.789 0-5.7422-5.0312-11.211-10.938-10.938-5.8516 0.27344-10.883 4.8125-10.883 10.938z"/>
 </g>
</svg>
